<svg width="159" height="46" viewBox="0 0 159 46" fill="none" xmlns="http://www.w3.org/2000/svg">
<path d="M40.2163 14.0445L39.123 15.0485L37.5932 13.6435C37.3689 13.4375 37.0648 13.3218 36.7476 13.3218C36.4305 13.3218 36.1263 13.4375 35.902 13.6435C35.6778 13.8495 35.5518 14.1288 35.5518 14.4201C35.5518 14.7114 35.6778 14.9907 35.902 15.1967L37.4319 16.6028L36.4965 17.4619L34.9655 16.0558C34.7412 15.8498 34.437 15.7341 34.1199 15.7341C33.8027 15.7341 33.4986 15.8498 33.2744 16.0558C33.0501 16.2617 32.9241 16.5411 32.9241 16.8324C32.9241 17.1236 33.0501 17.403 33.2744 17.6089L34.8042 19.015L33.8688 19.8741L32.3377 18.468C32.1135 18.2621 31.8094 18.1464 31.4922 18.1464C31.1751 18.1464 30.8709 18.2621 30.6467 18.468C30.4224 18.674 30.2964 18.9534 30.2964 19.2446C30.2964 19.5359 30.4224 19.8152 30.6467 20.0212L32.1765 21.4273L31.2411 22.2864L29.7112 20.8803C29.6003 20.7781 29.4685 20.697 29.3234 20.6416C29.1783 20.5862 29.0227 20.5576 28.8656 20.5574C28.7084 20.5572 28.5528 20.5854 28.4075 20.6404C28.2622 20.6955 28.1302 20.7763 28.0189 20.8782C27.9077 20.9801 27.8193 21.1011 27.759 21.2344C27.6987 21.3677 27.6675 21.5105 27.6673 21.6549C27.6671 21.7992 27.6978 21.9421 27.7577 22.0755C27.8177 22.2089 27.9057 22.3302 28.0166 22.4324L29.5465 23.8385L27.7712 25.4689L21.4883 19.6985L33.9298 8.27199C34.0493 8.16764 34.2079 8.10945 34.3728 8.10945C34.5377 8.10945 34.6962 8.16764 34.8157 8.27199L40.2128 13.2288C40.3299 13.3368 40.3957 13.4831 40.3957 13.6356C40.3957 13.788 40.3299 13.9343 40.2128 14.0424L40.2163 14.0445ZM41.4835 11.2863L42.1655 10.6599C42.5166 10.3371 42.7139 9.8995 42.7139 9.4432C42.7139 8.9869 42.5166 8.54928 42.1655 8.22649L41.7242 7.82128L49.0095 1.13041C49.0774 1.06946 49.1314 0.996732 49.1684 0.916471C49.2055 0.83621 49.2249 0.749996 49.2254 0.662817C49.2259 0.575639 49.2076 0.489251 49.1715 0.408614C49.1354 0.327978 49.0823 0.254705 49.0152 0.19306C48.9481 0.131415 48.8683 0.0826124 48.7805 0.0494754C48.6927 0.0163384 48.5986 -0.000476981 48.5037 1.02947e-05C48.4088 0.00049757 48.3149 0.0182805 48.2275 0.0523168C48.1401 0.0863531 48.0609 0.13596 47.9946 0.198291L40.7094 6.88916L40.2681 6.48395C39.9167 6.16142 39.4402 5.98025 38.9433 5.98025C38.4465 5.98025 37.97 6.16142 37.6186 6.48395L36.9377 7.10923L36.5115 6.71778C35.9459 6.19936 35.1794 5.90819 34.3803 5.90819C33.5812 5.90819 32.8147 6.19936 32.2491 6.71778L19.7833 18.1623C19.375 17.8687 18.8636 17.723 18.3461 17.7528C17.8285 17.7827 17.341 17.986 16.9759 18.3242C16.5755 18.6923 16.3507 19.1914 16.3507 19.7117C16.3507 20.2321 16.5755 20.7311 16.9759 21.0993L19.5459 23.4597L3.75553 37.9619L2.04138 36.3886C1.81712 36.1827 1.51295 36.067 1.1958 36.067C0.878654 36.067 0.574485 36.1827 0.350226 36.3886C0.125968 36.5946 0 36.8739 0 37.1652C0 37.4565 0.125968 37.7358 0.350226 37.9418L7.91191 44.8876C8.02295 44.9896 8.15481 45.0705 8.29989 45.1257C8.44497 45.1809 8.60045 45.2093 8.75748 45.2093C8.91452 45.2093 9.07007 45.1809 9.21515 45.1257C9.36023 45.0705 9.49202 44.9896 9.60306 44.8876C9.7141 44.7857 9.80221 44.6646 9.8623 44.5314C9.9224 44.3981 9.95329 44.2553 9.95329 44.1111C9.95329 43.9668 9.9224 43.824 9.8623 43.6908C9.80221 43.5575 9.7141 43.4365 9.60306 43.3345L7.89004 41.7612L23.6805 27.259L26.2506 29.6195C26.6329 29.9734 27.1479 30.1801 27.6904 30.1972C28.2329 30.2144 28.7621 30.0407 29.17 29.7118C29.5778 29.3828 29.8337 28.9233 29.8852 28.427C29.9368 27.9307 29.7802 27.435 29.4474 27.0411L37.3398 19.7927L39.964 17.3825L41.9016 15.6029C42.4667 15.0827 42.7841 14.3778 42.7841 13.643C42.7841 12.9081 42.4667 12.2033 41.9016 11.683L41.4754 11.2916L41.4835 11.2863Z" fill="#133C55"/>
<path d="M42.1884 23.9488C42.1033 22.04 41.7236 20.152 41.0605 18.3413L37.2716 22.0899C37.4525 22.6973 37.5614 23.3209 37.5965 23.9499C37.5919 27.6385 35.9944 31.1748 33.1545 33.7831C30.3145 36.3913 26.464 37.8585 22.4477 37.8627C20.09 37.8637 17.7567 37.4242 15.5898 36.5708L12.249 39.7364C15.3837 41.2789 18.8856 42.0844 22.4419 42.081C27.6771 42.077 32.6967 40.1655 36.3988 36.766C40.101 33.3665 42.1832 28.7568 42.1884 23.9488Z" fill="#133C55"/>
<path d="M6.05737 34.0388L9.34631 30.9166C8.00891 28.8029 7.30204 26.4027 7.29698 23.958C7.29192 21.5134 7.98885 19.1107 9.31748 16.9924C10.6461 14.874 12.5595 13.1149 14.8646 11.8924C17.1697 10.6699 19.785 10.0273 22.4469 10.0293C23.6592 10.0686 24.8651 10.2102 26.0492 10.4525L29.8174 7.08063C27.4555 6.27781 24.9627 5.84854 22.4446 5.81104C18.8668 5.80954 15.3558 6.70149 12.2875 8.39146C9.21913 10.0814 6.70886 12.5058 5.02526 15.4052C3.34165 18.3045 2.54808 21.5698 2.72948 24.8514C2.91088 28.1331 4.06039 31.3077 6.05505 34.0356L6.05737 34.0388Z" fill="#133C55"/>
<path d="M76.4343 29.2898C76.5918 29.2872 76.7482 29.3153 76.893 29.3725C77.0378 29.4296 77.1677 29.5144 77.274 29.6211L79.6562 31.9555C78.5023 33.3134 76.9996 34.387 75.2827 35.0801C73.3153 35.8312 71.1982 36.1945 69.0682 36.1464C67.0587 36.1755 65.0637 35.8286 63.2049 35.1267C61.5262 34.4822 60.018 33.5137 58.7826 32.2868C57.5428 31.0362 56.5896 29.5693 55.9797 27.9734C54.8778 24.9982 54.7015 21.7997 55.4706 18.7375C55.7659 17.5868 56.2271 16.4774 56.8421 15.4387C57.4316 14.4474 58.1619 13.5324 59.0138 12.7177C59.8612 11.9077 60.8281 11.2108 61.8862 10.6473C62.9798 10.0674 64.1549 9.62789 65.3786 9.34119C66.6968 9.03466 68.0521 8.88337 69.412 8.89089C70.4293 8.88662 71.4448 8.97269 72.4441 9.14795C73.3574 9.30881 74.2519 9.54917 75.1155 9.86573C75.92 10.1609 76.6882 10.5334 77.4074 10.9769C78.0854 11.3955 78.7184 11.8727 79.2974 12.402L77.2759 14.9383C77.1504 15.1027 76.9947 15.2458 76.8156 15.361C76.5893 15.4942 76.3232 15.5588 76.0548 15.5456C75.7043 15.5364 75.3655 15.4272 75.0855 15.2333C74.7586 15.0251 74.3584 14.7951 73.885 14.5432C73.3211 14.253 72.7238 14.0216 72.104 13.853C71.2226 13.6245 70.3087 13.5192 69.3932 13.5408C68.2455 13.5282 67.1075 13.7344 66.0511 14.1463C65.048 14.5434 64.1554 15.1432 63.4398 15.901C62.6759 16.7277 62.1009 17.6871 61.7491 18.722C61.3298 19.9527 61.1269 21.237 61.1479 22.5265C61.1249 23.8285 61.3448 25.1245 61.7979 26.3584C62.1828 27.4033 62.788 28.3683 63.5788 29.1984C64.3083 29.9544 65.2101 30.5535 66.2202 30.9531C67.2412 31.3539 68.3411 31.5571 69.4514 31.5501C70.0697 31.5535 70.6876 31.523 71.3018 31.4586C71.8256 31.4034 72.3419 31.2987 72.8423 31.1463C73.3107 31.0021 73.7605 30.8112 74.1837 30.577C74.6375 30.3214 75.0635 30.0261 75.4555 29.6953C75.5972 29.5878 75.7516 29.4952 75.9158 29.4193C76.075 29.3391 76.2527 29.2947 76.4343 29.2898Z" fill="#133C55"/>
<path d="M93.0831 35.8511H87.0396V9.18213H93.0831V35.8511Z" fill="#133C55"/>
<path d="M128.591 9.18274L116.904 35.8516H111.456L99.769 9.18274H104.612C105.065 9.16565 105.512 9.28703 105.882 9.52783C106.208 9.75242 106.46 10.0543 106.613 10.4009L112.897 25.7669C113.136 26.342 113.373 26.9701 113.607 27.651C113.841 28.332 114.058 29.0457 114.257 29.7922C114.43 29.0445 114.618 28.3308 114.821 27.651C115.024 26.9712 115.247 26.3432 115.491 25.7669L121.736 10.4009C121.89 10.07 122.134 9.78161 122.446 9.56406C122.809 9.30609 123.259 9.17304 123.718 9.18795L128.591 9.18274Z" fill="#133C55"/>
<path d="M158.32 35.8508H153.658C153.204 35.8683 152.757 35.747 152.386 35.5058C152.06 35.2814 151.807 34.9795 151.655 34.6327L149.694 29.5412H138.127L136.166 34.6327C136.014 34.9618 135.772 35.2499 135.465 35.4696C135.107 35.7281 134.66 35.8614 134.204 35.8457H129.508L140.855 9.17676H146.998L158.32 35.8508ZM148.234 25.723L145.093 17.562C144.906 17.133 144.71 16.6303 144.503 16.054C144.297 15.4778 144.1 14.8532 143.913 14.1803C143.727 14.8704 143.53 15.5031 143.323 16.0782C143.117 16.6533 142.92 17.1588 142.733 17.5948L139.611 25.7178L148.234 25.723Z" fill="#133C55"/>
</svg>
